# xmcd
#
# Track frame offsets:
#	182
#	16770
#	31100
#	48852
#	68952
#	88067
#	107302
#	119775
#	133417
#	148665
#
# Disc length: 2191
#
# Revision: 1
# Processed by: cddbd v1.5.1PL0 Copyright (c) Steve Scherf et al.
# Submitted via: VisiTrax 2.9.3.171 - For more info visit www.synapsa.com
# Normalized: r0:DSETVAR1
#
DISCID=87088d0a
DTITLE=Various Artist - Floor Fillin' Two Steppin' Honky Tonk Hits (volume 2)
DYEAR=1900
DGENRE=
TTITLE0=Tanya Tucker - It's A Little Too Late
TTITLE1=Highway 101 - On Chance To Dance
TTITLE2=Pirates Of The Mississippi - Pop From The Top
TTITLE3=PEARL RIVER - Find Out What's Happening
TTITLE4=Chris LeDoux - Cadillac Ranch
TTITLE5=Ricky Lynne Gregg - If I Had A Cheatin' Heart
TTITLE6=Charlie Floyd - Good Girls Go To Heaven
TTITLE7=Suzy Bogguss - I'm At Home On The Range
TTITLE8=Palomino Road - Why Baby Why
TTITLE9=Charlie Daniels - All Night Long
EXTD=
EXTT0=
EXTT1=
EXTT2=
EXTT3=
EXTT4=
EXTT5=
EXTT6=
EXTT7=
EXTT8=
EXTT9=
PLAYORDER=
